# This file uses centimeters as units for non-parametric coordinates.

g default
v -0.035526 0.043600 0.080976
v -0.034082 0.045160 0.082789
v -0.034416 0.047202 0.082891
v -0.032263 0.043292 0.082758
v -0.044932 0.046503 0.065651
v -0.044832 0.046114 0.065839
v -0.043505 0.046324 0.069611
v -0.034328 0.049325 0.083211
v -0.033284 0.051360 0.083446
v -0.041122 0.050257 0.075461
v -0.040458 0.046231 0.074889
v -0.040790 0.048245 0.075318
v -0.043501 0.047408 0.069823
v -0.043509 0.045237 0.069114
v -0.040126 0.044220 0.074175
v -0.043497 0.048494 0.069750
v -0.023694 0.043318 0.085303
v -0.019878 0.043234 0.084735
v -0.023277 0.046412 0.085811
v -0.024155 0.044618 0.085509
v -0.026376 0.043066 0.085117
v -0.017765 0.045817 0.085748
v -0.023117 0.048676 0.086039
v -0.018294 0.044844 0.085456
v -0.020340 0.049574 0.086892
v -0.023867 0.050770 0.086268
v -0.017609 0.046916 0.086182
v 0.034770 0.045160 0.082789
v 0.036214 0.043601 0.080976
v 0.040814 0.044220 0.074175
v 0.032952 0.043293 0.082758
v 0.045521 0.046115 0.065839
v 0.045621 0.046504 0.065651
v 0.044189 0.047408 0.069823
v 0.041810 0.050257 0.075461
v 0.033973 0.051360 0.083447
v 0.035017 0.049325 0.083211
v 0.035105 0.047203 0.082891
v 0.041146 0.046232 0.074889
v 0.041478 0.048246 0.075318
v 0.044193 0.046324 0.069611
v 0.044197 0.045238 0.069114
v 0.044185 0.048495 0.069750
v 0.020567 0.043235 0.084735
v 0.024383 0.043318 0.085303
v 0.024843 0.044618 0.085509
v 0.027065 0.043067 0.085117
v 0.023806 0.048677 0.086039
v 0.018454 0.045817 0.085748
v 0.018982 0.044844 0.085456
v 0.023966 0.046412 0.085811
v 0.024556 0.050770 0.086268
v 0.021028 0.049575 0.086892
v 0.018298 0.046916 0.086182
v -0.025994 0.048266 0.085966
v -0.028803 0.048710 0.085704
v -0.026359 0.047236 0.085785
v -0.026061 0.049440 0.086046
v -0.026463 0.050326 0.086013
v -0.027141 0.051046 0.085671
v -0.029641 0.051287 0.085033
v -0.030677 0.050742 0.084939
v -0.031260 0.049787 0.084707
v -0.031433 0.048755 0.084576
v -0.031212 0.047680 0.084545
v -0.030531 0.046723 0.084645
v -0.028848 0.045936 0.085023
v -0.027333 0.046275 0.085450
v 0.027047 0.047236 0.085785
v 0.029492 0.048710 0.085704
v 0.026682 0.048266 0.085967
v 0.026749 0.049441 0.086046
v 0.027151 0.050326 0.086013
v 0.027829 0.051046 0.085671
v 0.030330 0.051287 0.085033
v 0.031366 0.050743 0.084939
v 0.031948 0.049788 0.084707
v 0.032121 0.048756 0.084576
v 0.031900 0.047680 0.084545
v 0.031220 0.046724 0.084645
v 0.029536 0.045937 0.085023
v 0.028021 0.046276 0.085450
vt 2.009677 -1.542366
vt 2.087636 -1.480275
vt 2.091982 -1.494657
vt 2.086286 -1.402074
vt 1.350734 -1.946835
vt 1.358789 -1.942533
vt 1.521014 -1.885455
vt 2.105780 -1.490877
vt 2.115887 -1.445976
vt 1.772545 -1.782990
vt 1.747922 -1.754433
vt 1.766363 -1.768716
vt 1.530131 -1.885284
vt 1.499639 -1.885626
vt 1.717232 -1.740159
vt 1.526990 -1.885113
vt 2.195708 -1.033641
vt 2.171309 -0.869558
vt 2.217568 -1.015686
vt 2.204555 -1.053423
vt 2.187716 -1.148949
vt 2.214859 -0.778689
vt 2.227343 -1.008828
vt 2.202304 -0.801410
vt 2.264018 -0.889386
vt 2.237225 -1.041075
vt 2.233499 -0.771973
vt 2.087636 1.480275
vt 2.009677 1.542366
vt 1.717232 1.740159
vt 2.086286 1.402074
vt 1.358789 1.942533
vt 1.350734 1.946835
vt 1.530131 1.885284
vt 1.772545 1.782990
vt 2.115887 1.445976
vt 2.105780 1.490877
vt 2.091982 1.494657
vt 1.747922 1.754433
vt 1.766363 1.768716
vt 1.521014 1.885455
vt 1.499639 1.885626
vt 1.526990 1.885113
vt 2.171309 0.869558
vt 2.195708 1.033641
vt 2.204555 1.053423
vt 2.187716 1.148949
vt 2.227343 1.008828
vt 2.214859 0.778689
vt 2.202304 0.801410
vt 2.217568 1.015686
vt 2.237225 1.041075
vt 2.264018 0.889386
vt 2.233499 0.771973
vt 0.028845 -1.132506
vt 0.017559 -1.253304
vt 0.021060 -1.148184
vt 0.032265 -1.135377
vt 0.030861 -1.152666
vt 0.016137 -1.181808
vt -0.011277 -1.289340
vt -0.015327 -1.333881
vt -0.025317 -1.358946
vt -0.030933 -1.366380
vt -0.032265 -1.356876
vt -0.027972 -1.327617
vt -0.011718 -1.255212
vt 0.006624 -1.190079
vt 0.021060 1.148184
vt 0.017559 1.253304
vt 0.028845 1.132506
vt 0.032265 1.135377
vt 0.030861 1.152666
vt 0.016137 1.181808
vt -0.011277 1.289340
vt -0.015327 1.333881
vt -0.025317 1.358946
vt -0.030933 1.366380
vt -0.032265 1.356876
vt -0.027972 1.327617
vt -0.011718 1.255212
vt 0.006624 1.190079
vn -0.748340 -0.159774 0.643785
vn -0.614344 -0.286082 0.735349
vn -0.785422 -0.087441 0.612753
vn -0.748340 -0.159774 0.643785
vn -0.458658 -0.459550 0.760557
vn -0.614344 -0.286082 0.735349
vn -0.940957 -0.061438 0.332905
vn -0.937991 -0.089269 0.334969
vn -0.897290 -0.134285 0.420522
vn -0.753251 0.115768 0.647465
vn -0.703342 0.285777 0.650878
vn -0.816238 -0.132853 0.562232
vn -0.791308 -0.273627 0.546773
vn -0.785422 -0.087441 0.612753
vn -0.753251 0.115768 0.647465
vn -0.791308 -0.273627 0.546773
vn -0.805635 -0.211223 0.553478
vn -0.918188 -0.044434 0.393644
vn -0.937991 -0.089269 0.334969
vn -0.894594 -0.191085 0.403966
vn -0.897290 -0.134285 0.420522
vn -0.894594 -0.191085 0.403966
vn -0.793689 -0.287154 0.536283
vn -0.791308 -0.273627 0.546773
vn -0.791308 -0.273627 0.546773
vn -0.793689 -0.287154 0.536283
vn -0.785422 -0.087441 0.612753
vn -0.753251 0.115768 0.647465
vn -0.816238 -0.132853 0.562232
vn -0.805635 -0.211223 0.553478
vn -0.816238 -0.132853 0.562232
vn -0.934994 0.027194 0.353619
vn -0.918188 -0.044434 0.393644
vn -0.918188 -0.044434 0.393644
vn -0.934994 0.027194 0.353619
vn -0.940957 -0.061438 0.332905
vn -0.785422 -0.087441 0.612753
vn -0.793689 -0.287154 0.536283
vn -0.748340 -0.159774 0.643785
vn -0.897290 -0.134285 0.420522
vn -0.918188 -0.044434 0.393644
vn -0.940957 -0.061438 0.332905
vn -0.753251 0.115768 0.647465
vn -0.805635 -0.211223 0.553478
vn -0.791308 -0.273627 0.546773
vn -0.918188 -0.044434 0.393644
vn -0.897290 -0.134285 0.420522
vn -0.791308 -0.273627 0.546773
vn -0.791308 -0.273627 0.546773
vn -0.897290 -0.134285 0.420522
vn -0.894594 -0.191085 0.403966
vn -0.918188 -0.044434 0.393644
vn -0.805635 -0.211223 0.553478
vn -0.816238 -0.132853 0.562232
vn 0.040911 -0.175100 0.983700
vn 0.011726 -0.309416 0.950854
vn 0.028995 -0.173263 0.984449
vn -0.026211 -0.165332 0.985890
vn -0.051863 -0.174013 0.983377
vn 0.040911 -0.175100 0.983700
vn -0.067355 -0.285177 0.956106
vn -0.138606 -0.209458 0.967944
vn 0.028995 -0.173263 0.984449
vn 0.028995 -0.173263 0.984449
vn 0.011726 -0.309416 0.950854
vn -0.031102 -0.313751 0.948996
vn -0.170916 -0.347139 0.922108
vn -0.232255 -0.187996 0.954314
vn -0.138606 -0.209458 0.967944
vn -0.138606 -0.209458 0.967944
vn -0.067355 -0.285177 0.956106
vn -0.138461 -0.358188 0.923326
vn -0.138461 -0.358188 0.923326
vn -0.170916 -0.347139 0.922108
vn -0.138606 -0.209458 0.967944
vn 0.028995 -0.173263 0.984449
vn -0.026211 -0.165332 0.985890
vn 0.040911 -0.175100 0.983700
vn 0.028995 -0.173263 0.984449
vn -0.031102 -0.313751 0.948996
vn -0.067355 -0.285177 0.956106
vn 0.686558 -0.258821 0.679448
vn 0.768178 -0.032108 0.639430
vn 0.797363 -0.280615 0.534291
vn 0.686558 -0.258821 0.679448
vn 0.458663 -0.459545 0.760557
vn 0.768178 -0.032108 0.639430
vn 0.937286 -0.085666 0.337871
vn 0.939790 -0.062521 0.335984
vn 0.919852 -0.022913 0.391597
vn 0.821087 -0.144315 0.552258
vn 0.703336 0.285796 0.650876
vn 0.744202 0.124625 0.656225
vn 0.780679 -0.130226 0.611213
vn 0.790770 -0.285263 0.541579
vn 0.817264 -0.195173 0.542206
vn 0.817264 -0.195173 0.542206
vn 0.790770 -0.285263 0.541579
vn 0.896752 -0.147720 0.417151
vn 0.896752 -0.147720 0.417151
vn 0.890682 -0.186466 0.414629
vn 0.937286 -0.085666 0.337871
vn 0.797363 -0.280615 0.534291
vn 0.890682 -0.186466 0.414629
vn 0.896752 -0.147720 0.417151
vn 0.780679 -0.130226 0.611213
vn 0.797363 -0.280615 0.534291
vn 0.790770 -0.285263 0.541579
vn 0.817264 -0.195173 0.542206
vn 0.821087 -0.144315 0.552258
vn 0.744202 0.124625 0.656225
vn 0.920516 0.007071 0.390640
vn 0.821087 -0.144315 0.552258
vn 0.817264 -0.195173 0.542206
vn 0.939790 -0.062521 0.335984
vn 0.920516 0.007071 0.390640
vn 0.919852 -0.022913 0.391597
vn 0.797363 -0.280615 0.534291
vn 0.780679 -0.130226 0.611213
vn 0.686558 -0.258821 0.679448
vn 0.919852 -0.022913 0.391597
vn 0.896752 -0.147720 0.417151
vn 0.937286 -0.085666 0.337871
vn 0.817264 -0.195173 0.542206
vn 0.744202 0.124625 0.656225
vn 0.780679 -0.130226 0.611213
vn 0.896752 -0.147720 0.417151
vn 0.919852 -0.022913 0.391597
vn 0.817264 -0.195173 0.542206
vn 0.896752 -0.147720 0.417151
vn 0.790770 -0.285263 0.541579
vn 0.797363 -0.280615 0.534291
vn 0.817264 -0.195173 0.542206
vn 0.919852 -0.022913 0.391597
vn 0.920516 0.007071 0.390640
vn -0.005380 -0.306887 0.951731
vn -0.064607 -0.133667 0.988918
vn -0.060007 -0.174207 0.982879
vn -0.064607 -0.133667 0.988918
vn 0.051865 -0.174013 0.983377
vn -0.060007 -0.174207 0.982879
vn 0.132464 -0.217951 0.966928
vn 0.103923 -0.291091 0.951034
vn 0.052803 -0.277522 0.959267
vn 0.052803 -0.277522 0.959267
vn -0.005380 -0.306887 0.951731
vn -0.050955 -0.178736 0.982577
vn 0.132464 -0.217951 0.966928
vn 0.232263 -0.187995 0.954312
vn 0.170927 -0.347144 0.922103
vn 0.138477 -0.358205 0.923317
vn 0.103923 -0.291091 0.951034
vn 0.132464 -0.217951 0.966928
vn 0.132464 -0.217951 0.966928
vn 0.170927 -0.347144 0.922103
vn 0.138477 -0.358205 0.923317
vn -0.060007 -0.174207 0.982879
vn -0.050955 -0.178736 0.982577
vn -0.005380 -0.306887 0.951731
vn 0.052803 -0.277522 0.959267
vn -0.050955 -0.178736 0.982577
vn 0.132464 -0.217951 0.966928
vn -0.108686 -0.103263 0.988698
vn -0.250856 -0.044821 0.966986
vn -0.129717 -0.161146 0.978369
vn -0.111839 -0.044910 0.992711
vn -0.250856 -0.044821 0.966986
vn -0.108686 -0.103263 0.988698
vn -0.192866 0.092315 0.976873
vn -0.250856 -0.044821 0.966986
vn -0.111839 -0.044910 0.992711
vn -0.247719 0.189768 0.950065
vn -0.250856 -0.044821 0.966986
vn -0.192866 0.092315 0.976873
vn -0.205020 0.183540 0.961395
vn -0.250856 -0.044821 0.966986
vn -0.247719 0.189768 0.950065
vn -0.286038 0.095077 0.953490
vn -0.250856 -0.044821 0.966986
vn -0.205020 0.183540 0.961395
vn -0.384811 -0.023506 0.922696
vn -0.250856 -0.044821 0.966986
vn -0.286038 0.095077 0.953490
vn -0.394084 -0.078568 0.915710
vn -0.250856 -0.044821 0.966986
vn -0.384811 -0.023506 0.922696
vn -0.381403 -0.136643 0.914254
vn -0.250856 -0.044821 0.966986
vn -0.394084 -0.078568 0.915710
vn -0.341756 -0.192971 0.919764
vn -0.250856 -0.044821 0.966986
vn -0.381403 -0.136643 0.914254
vn -0.262657 -0.226093 0.938026
vn -0.250856 -0.044821 0.966986
vn -0.341756 -0.192971 0.919764
vn -0.181094 -0.209766 0.960835
vn -0.250856 -0.044821 0.966986
vn -0.262657 -0.226093 0.938026
vn -0.129717 -0.161146 0.978369
vn -0.250856 -0.044821 0.966986
vn -0.181094 -0.209766 0.960835
vn 0.129722 -0.161140 0.978369
vn 0.250855 -0.044812 0.966987
vn 0.108688 -0.103257 0.988699
vn 0.108688 -0.103257 0.988699
vn 0.250855 -0.044812 0.966987
vn 0.111839 -0.044906 0.992711
vn 0.111839 -0.044906 0.992711
vn 0.250855 -0.044812 0.966987
vn 0.192866 0.092323 0.976872
vn 0.192866 0.092323 0.976872
vn 0.250855 -0.044812 0.966987
vn 0.247718 0.189781 0.950063
vn 0.247718 0.189781 0.950063
vn 0.250855 -0.044812 0.966987
vn 0.205014 0.183543 0.961395
vn 0.205014 0.183543 0.961395
vn 0.250855 -0.044812 0.966987
vn 0.286035 0.095081 0.953490
vn 0.286035 0.095081 0.953490
vn 0.250855 -0.044812 0.966987
vn 0.384811 -0.023504 0.922696
vn 0.384811 -0.023504 0.922696
vn 0.250855 -0.044812 0.966987
vn 0.394084 -0.078561 0.915710
vn 0.394084 -0.078561 0.915710
vn 0.250855 -0.044812 0.966987
vn 0.381402 -0.136634 0.914256
vn 0.381402 -0.136634 0.914256
vn 0.250855 -0.044812 0.966987
vn 0.341753 -0.192964 0.919766
vn 0.341753 -0.192964 0.919766
vn 0.250855 -0.044812 0.966987
vn 0.262660 -0.226085 0.938028
vn 0.262660 -0.226085 0.938028
vn 0.250855 -0.044812 0.966987
vn 0.181102 -0.209759 0.960835
vn 0.181102 -0.209759 0.960835
vn 0.250855 -0.044812 0.966987
vn 0.129722 -0.161140 0.978369
s off
g polySurface156
f 1/1/1 2/2/2 3/3/3
f 1/1/4 4/4/5 2/2/6
f 5/5/7 6/6/8 7/7/9
f 8/8/10 9/9/11 10/10/12
f 11/11/13 3/3/14 8/8/15
f 11/11/16 12/12/17 13/13/18
f 6/6/19 14/14/20 7/7/21
f 14/14/22 15/15/23 11/11/24
f 11/11/25 15/15/26 3/3/27
f 8/8/28 10/10/29 12/12/30
f 10/10/31 16/16/32 13/13/33
f 13/13/34 16/16/35 5/5/36
f 3/3/37 15/15/38 1/1/39
f 7/7/40 13/13/41 5/5/42
f 8/8/43 12/12/44 11/11/45
f 13/13/46 7/7/47 11/11/48
f 11/11/49 7/7/50 14/14/51
f 13/13/52 12/12/53 10/10/54
f 17/17/55 18/18/56 19/19/57
f 20/20/58 21/21/59 17/17/60
f 22/22/61 23/23/62 19/19/63
f 19/19/64 18/18/65 24/24/66
f 25/25/67 26/26/68 23/23/69
f 23/23/70 22/22/71 27/27/72
f 27/27/73 25/25/74 23/23/75
f 19/19/76 20/20/77 17/17/78
f 19/19/79 24/24/80 22/22/81
f 28/28/82 29/29/83 30/30/84
f 28/28/85 31/31/86 29/29/87
f 32/32/88 33/33/89 34/34/90
f 35/35/91 36/36/92 37/37/93
f 38/38/94 39/39/95 40/40/96
f 40/40/97 39/39/98 41/41/99
f 41/41/100 42/42/101 32/32/102
f 30/30/103 42/42/104 41/41/105
f 38/38/106 30/30/107 39/39/108
f 40/40/109 35/35/110 37/37/111
f 43/43/112 35/35/113 40/40/114
f 33/33/115 43/43/116 34/34/117
f 30/30/118 38/38/119 28/28/120
f 34/34/121 41/41/122 32/32/123
f 40/40/124 37/37/125 38/38/126
f 41/41/127 34/34/128 40/40/129
f 41/41/130 39/39/131 30/30/132
f 40/40/133 34/34/134 43/43/135
f 44/44/136 45/45/137 46/46/138
f 45/45/139 47/47/140 46/46/141
f 48/48/142 49/49/143 50/50/144
f 50/50/145 44/44/146 51/51/147
f 48/48/148 52/52/149 53/53/150
f 54/54/151 49/49/152 48/48/153
f 48/48/154 53/53/155 54/54/156
f 46/46/157 51/51/158 44/44/159
f 50/50/160 51/51/161 48/48/162
f 55/55/163 56/56/164 57/57/165
f 58/58/166 56/56/167 55/55/168
f 59/59/169 56/56/170 58/58/171
f 60/60/172 56/56/173 59/59/174
f 61/61/175 56/56/176 60/60/177
f 62/62/178 56/56/179 61/61/180
f 63/63/181 56/56/182 62/62/183
f 64/64/184 56/56/185 63/63/186
f 65/65/187 56/56/188 64/64/189
f 66/66/190 56/56/191 65/65/192
f 67/67/193 56/56/194 66/66/195
f 68/68/196 56/56/197 67/67/198
f 57/57/199 56/56/200 68/68/201
f 69/69/202 70/70/203 71/71/204
f 71/71/205 70/70/206 72/72/207
f 72/72/208 70/70/209 73/73/210
f 73/73/211 70/70/212 74/74/213
f 74/74/214 70/70/215 75/75/216
f 75/75/217 70/70/218 76/76/219
f 76/76/220 70/70/221 77/77/222
f 77/77/223 70/70/224 78/78/225
f 78/78/226 70/70/227 79/79/228
f 79/79/229 70/70/230 80/80/231
f 80/80/232 70/70/233 81/81/234
f 81/81/235 70/70/236 82/82/237
f 82/82/238 70/70/239 69/69/240
