# This file uses centimeters as units for non-parametric coordinates.

g default
v -0.019594 -0.035951 -0.012220
v -0.014985 -0.035931 -0.041176
v -0.030146 -0.035956 -0.044544
v -0.043693 -0.035570 -0.047490
v -0.049798 -0.034232 -0.015713
v -0.037794 -0.036616 -0.017854
v -0.051268 -0.036244 0.022066
v -0.039391 -0.036628 0.023325
v -0.021940 -0.037623 0.025177
v -0.003714 -0.037647 0.026890
v -0.000331 -0.035977 -0.010337
v 0.015956 -0.037649 0.027061
v 0.021136 -0.035984 -0.010125
v 0.025597 -0.031363 0.029291
v 0.031981 -0.028160 -0.007765
v 0.028448 -0.023971 0.029460
v 0.035292 -0.020869 -0.011147
v 0.028757 -0.014992 0.029905
v 0.035707 -0.007794 -0.007134
v 0.023872 -0.004621 0.029849
v 0.030313 0.005105 -0.007224
v 0.007895 -0.002200 0.028485
v 0.012581 0.008117 -0.008683
v -0.012218 -0.002537 0.026891
v -0.009027 0.007696 -0.010414
v -0.032075 -0.004877 0.025037
v -0.029846 0.004787 -0.012470
v -0.051780 -0.012293 0.023695
v -0.050145 -0.004437 -0.014022
v -0.055722 -0.019866 0.021796
v -0.053922 -0.013861 -0.016040
v -0.056240 -0.029206 0.021683
v -0.054708 -0.025480 -0.016158
v -0.015407 -0.026735 0.033651
v -0.015035 -0.026742 0.033890
v -0.014482 -0.026764 0.034233
v -0.013906 -0.026762 0.034600
v -0.013290 -0.026774 0.034858
v -0.012987 -0.026595 0.035340
v -0.012901 -0.026400 0.035599
v -0.012891 -0.026159 0.035898
v -0.013036 -0.025882 0.036135
v -0.013536 -0.025819 0.035897
v -0.014168 -0.025828 0.035507
v -0.014798 -0.025893 0.035038
v -0.015435 -0.026087 0.034459
v -0.015579 -0.026301 0.034028
v -0.015572 -0.026549 0.033755
v 0.032588 -0.027949 -0.031722
v 0.023162 -0.035803 -0.034623
v 0.005271 -0.035798 -0.036954
v -0.048873 -0.026727 -0.048521
v -0.049884 -0.009082 -0.048224
v -0.042306 0.006136 -0.045783
v -0.024635 0.014541 -0.041990
v -0.004517 0.018246 -0.039600
v 0.015347 0.019671 -0.035284
v 0.032735 0.016234 -0.031908
v 0.037650 -0.000940 -0.030586
v -0.019315 0.029440 -0.077681
v -0.001596 0.037785 -0.074084
v 0.018222 0.039154 -0.070466
v 0.035065 0.034584 -0.066558
v 0.040785 0.015250 -0.064024
v 0.033828 -0.028523 -0.064059
v 0.038017 -0.016918 -0.034736
v 0.025890 -0.035696 -0.067674
v 0.012644 -0.035677 -0.070429
v -0.010045 -0.035714 -0.072399
v -0.024053 -0.035784 -0.075339
v -0.035425 -0.035758 -0.077774
v -0.041597 -0.028662 -0.079159
v -0.041665 -0.002914 -0.082058
v -0.034233 0.018034 -0.081019
v 0.040204 -0.008815 -0.067543
vt 1.191120 8.827430
vt -0.198740 9.281170
vt -0.053900 8.629290
vt -0.325400 9.863680
vt 0.948890 9.610010
vt 1.040930 10.126200
vt 2.665340 10.189400
vt 2.719460 9.678700
vt 2.799110 8.928310
vt 1.272080 7.999170
vt 2.872760 8.144610
vt 1.281190 7.076110
vt 2.880130 7.298830
vt 1.382690 6.609770
vt 2.976010 6.884300
vt 1.237250 6.467420
vt 2.983250 6.761700
vt 1.409830 6.449590
vt 3.002400 6.748420
vt 1.405940 6.681500
vt 2.999970 6.958450
vt 1.343190 7.443980
vt 2.941320 7.645450
vt 1.268770 8.373100
vt 2.872820 8.510290
vt 1.180360 9.268270
vt 2.793070 9.364140
vt 1.113630 10.141100
vt 2.735380 10.211400
vt 1.026880 10.303500
vt 2.653740 10.380900
vt 1.021780 10.337300
vt 2.648850 10.403200
vt 4.560160 9.806240
vt 4.570450 9.432990
vt 4.585200 8.877200
vt 4.600970 8.299000
vt 4.612080 7.679930
vt 4.632780 7.375070
vt 4.643950 7.288990
vt 4.656780 7.278880
vt 4.666970 7.424910
vt 4.656730 7.926680
vt 4.639980 8.561890
vt 4.619820 9.195040
vt 4.594910 9.834730
vt 4.576370 9.979450
vt 4.564620 9.972730
vt 0.352600 6.583690
vt 0.227830 6.989000
vt 0.127620 7.758280
vt -0.369730 10.086400
vt -0.356950 10.129900
vt -0.251990 9.804060
vt -0.088920 9.044230
vt 0.013870 8.179180
vt 0.199430 7.325030
vt 0.344590 6.577370
vt 0.401450 6.366020
vt -1.623528 8.815460
vt -1.313331 7.201410
vt -1.468881 8.053560
vt -1.145281 6.477210
vt -1.036301 6.231250
vt -1.037820 6.530390
vt 0.223010 6.350260
vt -1.193261 6.871700
vt -1.311721 7.441240
vt -1.396415 8.416850
vt -1.522835 9.019160
vt -1.627540 9.508180
vt -1.687068 9.773570
vt -1.811726 9.776500
vt -1.767079 9.456940
vt -1.187619 6.256220
vn 0.005081 -0.999861 -0.015908
vn -0.000971 -0.999955 -0.009470
vn 0.004998 -0.999982 -0.003363
vn -0.491746 -0.865186 -0.098181
vn -0.063000 -0.997871 -0.016838
vn -0.682359 -0.725897 -0.086369
vn -0.320838 -0.798540 0.509310
vn -0.169897 -0.836876 0.520359
vn -0.147068 -0.883368 0.445007
vn 0.001022 -0.999564 -0.029503
vn -0.082013 -0.920939 0.380980
vn 0.201471 -0.979490 -0.003091
vn 0.192123 -0.885061 0.423977
vn 0.720980 -0.691457 0.045551
vn 0.545690 -0.639481 0.541559
vn 0.952802 -0.287858 0.096466
vn 0.706187 -0.303818 0.639527
vn 0.981965 0.097399 0.162045
vn 0.713838 0.001319 0.700310
vn 0.725045 0.620010 0.299828
vn 0.362485 0.500072 0.786468
vn 0.035417 0.940212 0.338744
vn -0.069801 0.762313 0.643433
vn -0.088520 0.954572 0.284530
vn -0.195229 0.741825 0.641546
vn -0.251546 0.934573 0.251591
vn -0.360257 0.662838 0.656399
vn -0.674075 0.731153 0.105064
vn -0.704814 0.309872 0.638135
vn -0.961778 0.272260 -0.029293
vn -0.845088 -0.069568 0.530082
vn -0.984258 -0.145494 -0.100336
vn -0.744280 -0.413398 0.524546
vn -0.273018 -0.290523 0.917092
vn -0.417523 -0.188125 0.888979
vn -0.326959 -0.577113 0.748357
vn -0.196330 -0.753196 0.627813
vn -0.064692 -0.790070 0.609594
vn 0.083465 -0.682361 0.726235
vn 0.206769 -0.587998 0.781988
vn 0.294770 -0.416489 0.860028
vn 0.024244 0.155019 0.987614
vn -0.301734 0.418477 0.856641
vn -0.423134 0.205951 0.882350
vn -0.438047 -0.147985 0.886688
vn -0.366057 -0.536426 0.760427
vn -0.265607 -0.568219 0.778833
vn -0.187054 -0.499094 0.846118
vn 0.792658 -0.608799 0.032511
vn 0.325867 -0.945292 0.015255
vn 0.002297 -0.999986 -0.004735
vn -0.940463 -0.283194 -0.187963
vn -0.963952 0.232945 -0.128583
vn -0.695161 0.712311 0.096769
vn -0.352670 0.898025 0.263012
vn -0.193961 0.904636 0.379491
vn -0.001575 0.894690 0.446684
vn 0.605738 0.696883 0.383974
vn 0.977001 0.155923 0.145453
vn -0.444518 0.845522 0.295797
vn -0.063850 0.873726 0.482210
vn -0.305322 0.839366 0.449715
vn 0.431408 0.781144 0.451333
vn 0.966232 0.186878 0.177403
vn 0.859557 -0.510515 0.023155
vn 0.976279 -0.209778 0.053599
vn 0.454714 -0.890135 0.029909
vn 0.000454 -0.999994 -0.003355
vn 0.005292 -0.999974 -0.004952
vn 0.002664 -0.999981 -0.005591
vn -0.270431 -0.960038 -0.072078
vn -0.883808 -0.420324 -0.205451
vn -0.972453 0.087225 -0.216165
vn -0.841131 0.539829 -0.032913
vn 0.992438 -0.114535 0.044148
s 1
g polySurface159 polySurface113 polySurface61 polySurface36 polySurface7 polySurface4 Jester
f 1/1/1 3/2/2 2/3/3
f 4/4/4 6/5/5 5/6/6
f 7/7/7 6/5/5 8/8/8
f 8/8/8 1/1/1 9/9/9
f 9/9/9 11/10/10 10/11/11
f 10/11/11 13/12/12 12/13/13
f 12/13/13 15/14/14 14/15/15
f 14/15/15 17/16/16 16/17/17
f 16/17/17 19/18/18 18/19/19
f 18/19/19 21/20/20 20/21/21
f 20/21/21 23/22/22 22/23/23
f 22/23/23 25/24/24 24/25/25
f 24/25/25 27/26/26 26/27/27
f 26/27/27 29/28/28 28/29/29
f 28/29/29 31/30/30 30/31/31
f 30/31/31 33/32/32 32/33/33
f 32/33/33 5/6/6 7/7/7
f 34/34/34 8/8/8 35/35/35
f 35/35/35 9/9/9 36/36/36
f 36/36/36 10/11/11 37/37/37
f 37/37/37 12/13/13 38/38/38
f 38/38/38 14/15/15 39/39/39
f 39/39/39 16/17/17 40/40/40
f 40/40/40 18/19/19 41/41/41
f 41/41/41 20/21/21 42/42/42
f 42/42/42 22/23/23 43/43/43
f 43/43/43 24/25/25 44/44/44
f 44/44/44 26/27/27 45/45/45
f 45/45/45 28/29/29 46/46/46
f 46/46/46 30/31/31 47/47/47
f 47/47/47 32/33/33 48/48/48
f 48/48/48 7/7/7 34/34/34
f 49/49/49 17/16/16 15/14/14
f 50/50/50 15/14/14 13/12/12
f 51/51/51 13/12/12 11/10/10
f 51/51/51 1/1/1 2/3/3
f 52/52/52 5/6/6 33/32/32
f 53/53/53 33/32/32 31/30/30
f 53/53/53 29/28/28 54/54/54
f 29/28/28 55/55/55 54/54/54
f 27/26/26 56/56/56 55/55/55
f 56/56/56 23/22/22 57/57/57
f 23/22/22 58/58/58 57/57/57
f 59/59/59 21/20/20 19/18/18
f 56/56/56 60/60/60 55/55/55
f 56/56/56 62/61/61 61/62/62
f 57/57/57 63/63/63 62/61/61
f 64/64/64 58/58/58 59/59/59
f 65/65/65 66/66/66 49/49/49
f 67/67/67 49/49/49 50/50/50
f 68/68/68 50/50/50 51/51/51
f 51/51/51 69/69/69 68/68/68
f 70/70/70 2/3/3 3/2/2
f 71/71/71 3/2/2 4/4/4
f 72/72/72 4/4/4 52/52/52
f 73/73/73 52/52/52 53/53/53
f 53/53/53 74/74/74 73/73/73
f 60/60/60 54/54/54 55/55/55
f 59/59/59 75/75/75 64/64/64
f 19/18/18 66/66/66 59/59/59
f 3/2/2 1/1/1 6/5/5
f 6/5/5 4/4/4 3/2/2
f 6/5/5 7/7/7 5/6/6
f 1/1/1 8/8/8 6/5/5
f 11/10/10 9/9/9 1/1/1
f 13/12/12 10/11/11 11/10/10
f 15/14/14 12/13/13 13/12/12
f 17/16/16 14/15/15 15/14/14
f 19/18/18 16/17/17 17/16/16
f 21/20/20 18/19/19 19/18/18
f 23/22/22 20/21/21 21/20/20
f 25/24/24 22/23/23 23/22/22
f 27/26/26 24/25/25 25/24/24
f 29/28/28 26/27/27 27/26/26
f 31/30/30 28/29/29 29/28/28
f 33/32/32 30/31/31 31/30/30
f 5/6/6 32/33/33 33/32/32
f 8/8/8 34/34/34 7/7/7
f 9/9/9 35/35/35 8/8/8
f 10/11/11 36/36/36 9/9/9
f 12/13/13 37/37/37 10/11/11
f 14/15/15 38/38/38 12/13/13
f 16/17/17 39/39/39 14/15/15
f 18/19/19 40/40/40 16/17/17
f 20/21/21 41/41/41 18/19/19
f 22/23/23 42/42/42 20/21/21
f 24/25/25 43/43/43 22/23/23
f 26/27/27 44/44/44 24/25/25
f 28/29/29 45/45/45 26/27/27
f 30/31/31 46/46/46 28/29/29
f 32/33/33 47/47/47 30/31/31
f 7/7/7 48/48/48 32/33/33
f 17/16/16 49/49/49 66/66/66
f 15/14/14 50/50/50 49/49/49
f 13/12/12 51/51/51 50/50/50
f 1/1/1 51/51/51 11/10/10
f 5/6/6 52/52/52 4/4/4
f 33/32/32 53/53/53 52/52/52
f 29/28/28 53/53/53 31/30/30
f 55/55/55 29/28/28 27/26/26
f 56/56/56 27/26/26 25/24/24
f 23/22/22 56/56/56 25/24/24
f 58/58/58 23/22/22 21/20/20
f 21/20/20 59/59/59 58/58/58
f 60/60/60 56/56/56 61/62/62
f 62/61/61 56/56/56 57/57/57
f 63/63/63 57/57/57 58/58/58
f 58/58/58 64/64/64 63/63/63
f 66/66/66 65/65/65 75/75/75
f 49/49/49 67/67/67 65/65/65
f 50/50/50 68/68/68 67/67/67
f 69/69/69 51/51/51 2/3/3
f 2/3/3 70/70/70 69/69/69
f 3/2/2 71/71/71 70/70/70
f 4/4/4 72/72/72 71/71/71
f 52/52/52 73/73/73 72/72/72
f 74/74/74 53/53/53 54/54/54
f 54/54/54 60/60/60 74/74/74
f 75/75/75 59/59/59 66/66/66
f 66/66/66 19/18/18 17/16/16
