# This file uses centimeters as units for non-parametric coordinates.

g default
v 0.238539 -0.034518 -0.011368
v 0.212570 -0.039445 -0.017476
v 0.210347 -0.040534 -0.001362
v 0.236690 -0.036175 -0.000981
v 0.253181 -0.026450 -0.009931
v 0.253065 -0.028264 0.001845
v 0.237721 -0.013283 -0.035101
v 0.238475 -0.026122 -0.024032
v 0.253747 -0.020934 -0.016558
v 0.254813 -0.012007 -0.024705
v 0.233535 0.031629 0.018045
v 0.238499 0.035568 -0.011782
v 0.258737 0.021866 -0.009142
v 0.256684 0.019678 0.013489
v 0.207459 -0.037875 0.015630
v 0.235098 -0.032270 0.022693
v 0.213596 0.002749 -0.049141
v 0.218406 -0.016420 -0.040452
v 0.240433 0.009433 -0.041274
v 0.204792 -0.022039 0.029093
v 0.232791 -0.017536 0.033566
v 0.232085 0.001830 0.038100
v 0.203975 -0.000128 0.034632
v 0.204675 0.024483 0.025392
v 0.232252 0.020050 0.031575
v 0.215415 -0.030563 -0.031254
v 0.206588 0.033986 0.013246
v 0.211815 0.037531 -0.015846
v 0.215062 0.028805 -0.033091
v 0.239867 0.026792 -0.032871
v 0.253595 0.013038 0.025691
v 0.252410 -0.001315 0.029011
v 0.251575 -0.025171 0.018640
v 0.251582 -0.012877 0.027844
v 0.256256 0.000787 -0.029779
v 0.259120 0.016280 -0.024910
v 0.060830 -0.001997 0.032073
v 0.136787 -0.004984 0.032644
v 0.141845 -0.022897 0.025942
v 0.063238 -0.018563 0.025230
v 0.144893 -0.035193 0.016407
v 0.063702 -0.026369 0.015161
v 0.145331 -0.038335 0.000519
v 0.062697 -0.027348 -0.001281
v 0.184089 -0.041717 0.001626
v 0.182460 -0.037654 0.013274
v 0.176458 -0.002621 0.033851
v 0.179023 -0.024824 0.025525
v 0.174679 0.026462 0.023819
v 0.131444 0.022633 0.024991
v 0.174591 0.037449 0.012957
v 0.130973 0.034229 0.010677
v 0.133763 0.038636 -0.014809
v 0.179059 0.041717 -0.013784
v 0.180978 0.033035 -0.035837
v 0.135408 0.031012 -0.038584
v 0.192229 0.007989 -0.045818
v 0.185440 -0.015524 -0.042300
v 0.184613 -0.029367 -0.034924
v 0.184345 -0.040237 -0.017253
v 0.138471 0.007929 -0.046180
v 0.141030 -0.013382 -0.044663
v 0.144635 -0.035677 -0.018454
v 0.060300 -0.025966 -0.022792
v 0.142415 -0.025333 -0.039589
v 0.058115 -0.017707 -0.040312
v 0.057275 -0.007353 -0.044752
v 0.054800 0.008223 -0.043762
v 0.052952 0.023036 -0.034931
v 0.052933 0.029798 -0.016567
v 0.054605 0.027047 0.007664
v 0.056924 0.018384 0.025924
v -0.013508 -0.013126 -0.007368
v -0.013552 -0.014431 0.000709
v -0.013465 -0.010870 -0.015909
v -0.013452 -0.002048 -0.022223
v -0.013446 -0.008701 -0.020408
v -0.013497 0.006704 -0.021803
v -0.013568 0.014737 -0.014355
v -0.013845 0.017181 -0.002954
v -0.013727 0.014665 0.012837
v -0.013689 0.009896 0.023543
v -0.013581 -0.000717 0.028284
v -0.013556 -0.014169 0.008324
v -0.013537 -0.015366 0.019242
v -0.013533 -0.012619 0.026213
v 0.258457 -0.015709 0.001034
v 0.257742 -0.014223 0.009104
v 0.257745 -0.008315 0.013527
v 0.258142 -0.002760 0.014088
v 0.258712 0.004137 0.012493
v 0.260196 0.007328 0.006629
v 0.261183 0.008379 -0.004245
v 0.261367 0.005695 -0.011822
v 0.259991 -0.001750 -0.014162
v 0.259297 -0.007898 -0.011724
v 0.258785 -0.012187 -0.007809
v 0.258513 -0.014837 -0.004625
v -0.022840 -0.006012 -0.003328
v -0.022851 -0.006465 -0.001214
v -0.019697 -0.008842 -0.004132
v -0.022863 -0.006798 0.000841
v -0.022869 -0.006930 0.002838
v -0.019728 -0.009745 0.001454
v -0.022822 -0.004876 -0.007160
v -0.022829 -0.005439 -0.005501
v -0.019668 -0.007282 -0.010039
v -0.022815 -0.003201 -0.009108
v -0.022817 -0.004324 -0.008305
v -0.019655 -0.005782 -0.013151
v -0.022823 0.000452 -0.009748
v -0.022817 -0.001508 -0.009570
v -0.019659 -0.001180 -0.014405
v -0.022849 0.004814 -0.008640
v -0.022835 0.002679 -0.009641
v -0.019690 0.004872 -0.014115
v -0.022912 0.008191 -0.004346
v -0.022867 0.006858 -0.006745
v -0.019739 0.010428 -0.008964
v -0.023003 0.008804 0.002014
v -0.022982 0.008813 -0.001446
v -0.019931 0.012118 -0.001079
v -0.022952 0.007237 0.009403
v -0.022972 0.008164 0.006032
v -0.019849 0.010378 0.009842
v -0.022924 0.004066 0.014093
v -0.022943 0.006023 0.012127
v -0.019822 0.007080 0.017246
v -0.022877 -0.001499 0.015639
v -0.022897 0.001366 0.015299
v -0.019748 -0.000260 0.020525
v -0.022859 -0.006391 0.013961
v -0.022865 -0.004527 0.015112
v -0.019715 -0.008491 0.019092
v -0.022863 -0.007287 0.009911
v -0.022860 -0.007090 0.012187
v -0.019717 -0.010391 0.014271
v -0.022870 -0.006863 0.004775
v -0.022868 -0.006982 0.007133
v -0.019731 -0.009563 0.006720
vt 0.621092 0.265966
vt 0.636727 0.281838
vt 0.637526 0.281241
vt 0.620273 0.266885
vt 0.577747 0.241250
vt 0.574448 0.241663
vt 0.635506 0.259019
vt 0.583319 0.237785
vt 0.626937 0.263259
vt 0.591822 0.231895
vt 0.658252 0.240856
vt 0.617407 0.206321
vt 0.660338 0.238671
vt 0.613950 0.207453
vt 0.638312 0.281195
vt 0.621252 0.264966
vt 0.663338 0.265746
vt 0.647253 0.249373
vt 0.649200 0.270981
vt 0.647455 0.275479
vt 0.629807 0.259651
vt 0.640627 0.252180
vt 0.673857 0.257543
vt 0.659669 0.267016
vt 0.651295 0.245290
vt 0.642134 0.277263
vt 0.679183 0.253615
vt 0.680839 0.251450
vt 0.656532 0.242464
vt 0.675685 0.254330
vt 0.608832 0.212877
vt 0.596105 0.222701
vt 0.576231 0.239426
vt 0.586298 0.230805
vt 0.603123 0.223040
vt 0.614172 0.210813
vt 0.737879 0.323410
vt 0.682005 0.300379
vt 0.694224 0.295070
vt 0.727889 0.329228
vt 0.674286 0.304399
vt 0.724155 0.332522
vt 0.673685 0.306134
vt 0.725609 0.333998
vt 0.650299 0.292363
vt 0.652445 0.290912
vt 0.673536 0.278701
vt 0.660438 0.286720
vt 0.691663 0.268480
vt 0.713288 0.286704
vt 0.698810 0.264695
vt 0.721291 0.282977
vt 0.701083 0.262442
vt 0.724457 0.281267
vt 0.697109 0.266026
vt 0.721379 0.284619
vt 0.677772 0.271853
vt 0.668064 0.283506
vt 0.660131 0.288909
vt 0.652646 0.292495
vt 0.707450 0.292756
vt 0.693988 0.300007
vt 0.677226 0.306180
vt 0.729598 0.335310
vt 0.686094 0.303913
vt 0.736964 0.333688
vt 0.743607 0.330166
vt 0.753595 0.325011
vt 0.762121 0.319575
vt 0.764297 0.316159
vt 0.759703 0.315545
vt 0.751972 0.317242
vt 0.760419 0.351204
vt 0.758464 0.351453
vt 0.763165 0.350471
vt 0.770734 0.346087
vt 0.765373 0.349559
vt 0.777474 0.341375
vt 0.782825 0.336648
vt 0.783538 0.334807
vt 0.779586 0.335165
vt 0.774575 0.337079
vt 0.765723 0.342455
vt 0.757744 0.350864
vt 0.755479 0.350853
vt 0.756750 0.348960
vt 0.574448 0.241663
vt 0.577747 0.241250
vt 0.583319 0.237785
vt 0.591822 0.231895
vt 0.603123 0.223040
vt 0.614172 0.210813
vt 0.617407 0.206321
vt 0.613950 0.207453
vt 0.608832 0.212877
vt 0.596105 0.222701
vt 0.586298 0.230805
vt 0.576231 0.239426
vt 0.761334 0.350960
vt 0.760419 0.351204
vt 0.759767 0.351287
vt 0.759115 0.351370
vt 0.758464 0.351453
vt 0.758224 0.351257
vt 0.763901 0.350167
vt 0.763165 0.350471
vt 0.762250 0.350716
vt 0.767160 0.348402
vt 0.765373 0.349559
vt 0.764637 0.349863
vt 0.772981 0.344517
vt 0.770734 0.346087
vt 0.768947 0.347245
vt 0.779258 0.339799
vt 0.777474 0.341375
vt 0.775227 0.342946
vt 0.783063 0.336034
vt 0.782825 0.336648
vt 0.781041 0.338223
vt 0.782221 0.334926
vt 0.783538 0.334807
vt 0.783300 0.335420
vt 0.777916 0.335803
vt 0.779586 0.335165
vt 0.780904 0.335045
vt 0.771624 0.338871
vt 0.774575 0.337079
vt 0.776245 0.336441
vt 0.762732 0.344623
vt 0.765723 0.342455
vt 0.768674 0.340663
vt 0.756326 0.349591
vt 0.756750 0.348960
vt 0.759741 0.346792
vt 0.756234 0.350857
vt 0.755479 0.350853
vt 0.755902 0.350222
vt 0.757984 0.351060
vt 0.757744 0.350864
vt 0.756989 0.350860
vn 0.328022 -0.908595 -0.258565
vn 0.108306 -0.994099 0.006095
vn 0.171536 -0.924070 -0.341570
vn 0.326231 -0.943358 0.060410
vn 0.665411 -0.699484 -0.260675
vn 0.722142 -0.690264 0.045240
vn 0.421411 -0.481802 -0.768296
vn 0.697644 -0.533224 -0.478503
vn 0.390435 -0.693063 -0.605990
vn 0.697502 -0.393105 -0.599132
vn 0.294196 0.885331 0.360052
vn 0.776510 0.629404 0.029717
vn 0.386922 0.913485 -0.125845
vn 0.796325 0.530761 0.290101
vn 0.034876 -0.910279 0.412523
vn 0.228609 -0.753949 0.615873
vn 0.060955 0.078903 -0.995017
vn 0.377179 0.005725 -0.926123
vn 0.166444 -0.435835 -0.884502
vn -0.070848 -0.527945 0.846319
vn 0.092892 -0.373740 0.922870
vn 0.167091 0.094006 0.981450
vn -0.064273 0.507834 0.859054
vn -0.090102 -0.064966 0.993811
vn 0.111659 0.610531 0.784082
vn 0.141200 -0.709347 -0.690572
vn 0.034225 0.868007 0.495371
vn 0.095934 0.990496 -0.098566
vn 0.357618 0.663399 -0.657275
vn 0.089114 0.695246 -0.713226
vn 0.653271 0.369987 0.660565
vn 0.726713 -0.012736 0.686823
vn 0.676012 -0.650155 0.346852
vn 0.606745 -0.313573 0.730433
vn 0.766992 -0.035020 -0.640700
vn 0.816355 0.421609 -0.394727
vn -0.028166 -0.126712 0.991540
vn -0.021908 -0.451083 0.892213
vn -0.012768 0.076755 0.996968
vn -0.057658 -0.677817 0.732966
vn -0.052666 -0.816520 0.574910
vn -0.126232 -0.960059 0.249704
vn -0.100093 -0.991408 0.084208
vn -0.150424 -0.988135 -0.031000
vn -0.038275 -0.995437 0.087409
vn -0.045827 -0.849759 0.525176
vn -0.025672 -0.009749 0.999623
vn -0.024138 -0.502727 0.864108
vn -0.004785 0.535846 0.844302
vn -0.048666 0.647060 0.760885
vn 0.017079 0.897863 0.439944
vn -0.094072 0.943851 0.316696
vn 0.027926 0.992684 -0.117467
vn -0.078832 0.981690 -0.173406
vn 0.049396 0.783198 -0.619808
vn -0.035961 0.620511 -0.783372
vn 0.003102 0.105988 -0.994363
vn 0.048342 -0.369175 -0.928102
vn 0.037737 -0.630336 -0.775404
vn -0.016560 -0.944320 -0.328611
vn -0.009391 0.109631 -0.993928
vn 0.011826 -0.281977 -0.959348
vn -0.102158 -0.971709 -0.212946
vn -0.140198 -0.952102 -0.271745
vn -0.041620 -0.764605 -0.643155
vn -0.187014 -0.691298 -0.697949
vn -0.167209 -0.128740 -0.977480
vn -0.174751 0.346912 -0.921474
vn -0.174847 0.800880 -0.572730
vn -0.154793 0.984346 -0.084270
vn -0.119689 0.934435 0.335418
vn -0.052099 0.544756 0.836975
vn -0.348991 -0.915154 -0.201740
vn -0.407808 -0.911197 -0.058422
vn -0.452618 -0.836343 -0.309300
vn -0.525558 -0.156994 -0.836147
vn -0.559394 -0.540524 -0.628421
vn -0.524385 0.258212 -0.811386
vn -0.439157 0.748932 -0.496227
vn -0.387205 0.921977 0.005482
vn -0.412867 0.872736 0.260524
vn -0.391097 0.703305 0.593637
vn -0.388107 0.149658 0.909382
vn -0.347789 -0.937477 -0.013409
vn -0.356141 -0.906731 0.225838
vn -0.398551 -0.531845 0.747193
vn 0.952590 -0.298948 0.056586
vn 0.957231 -0.282708 -0.061527
vn 0.959944 -0.253894 -0.118512
vn 0.967261 -0.212167 -0.139255
vn 0.978972 -0.140507 -0.147888
vn 0.997285 -0.013835 -0.072326
vn 0.994518 0.092878 0.048043
vn 0.984387 0.072378 0.160450
vn 0.969734 0.001446 0.244158
vn 0.961241 -0.068670 0.267020
vn 0.955414 -0.151156 0.253644
vn 0.952230 -0.245444 0.181701
vn -0.839107 -0.528322 -0.129523
vn -0.649257 -0.743239 -0.161434
vn -0.834974 -0.540352 -0.104109
vn -0.834177 -0.547550 -0.065864
vn -0.641022 -0.765838 -0.050817
vn -0.832602 -0.553787 -0.009714
vn -0.860886 -0.469992 -0.194894
vn -0.684812 -0.685268 -0.247871
vn -0.847339 -0.507977 -0.154841
vn -0.916114 -0.170155 -0.363020
vn -0.796821 -0.386883 -0.464109
vn -0.898255 -0.345288 -0.271873
vn -0.914459 -0.011797 -0.404505
vn -0.808753 -0.063076 -0.584757
vn -0.914490 -0.076767 -0.397260
vn -0.911664 0.230059 -0.340501
vn -0.811635 0.233441 -0.535493
vn -0.919852 0.083806 -0.383208
vn -0.882997 0.437785 -0.169297
vn -0.756646 0.568033 -0.323767
vn -0.900651 0.334597 -0.277259
vn -0.852284 0.521213 0.044148
vn -0.683944 0.729374 -0.015295
vn -0.864310 0.498987 -0.063088
vn -0.853531 0.489390 0.178836
vn -0.667060 0.714864 0.209761
vn -0.845614 0.521484 0.113984
vn -0.905926 0.231929 0.354269
vn -0.763061 0.463038 0.450926
vn -0.884417 0.389419 0.257215
vn -0.919670 -0.020067 0.392179
vn -0.809876 0.070209 0.582384
vn -0.913122 0.108239 0.393056
vn -0.918128 -0.318172 0.236237
vn -0.828189 -0.346826 0.440244
vn -0.925471 -0.131631 0.355214
vn -0.845577 -0.533738 -0.011079
vn -0.700357 -0.709858 0.074846
vn -0.879257 -0.463868 0.108322
vn -0.821730 -0.569854 -0.005210
vn -0.617040 -0.786251 -0.032721
vn -0.816208 -0.575867 -0.046698
s 1
g polySurface153 polySurface140 pasted__polySurface39 pasted__polySurface37 pasted__polySurface10 pasted__polySurface9 pasted__polySurface1 pasted__Jester group
f 1/1/1 3/2/2 2/3/3
f 3/2/2 1/1/1 4/4/4
f 5/5/5 4/4/4 1/1/1
f 4/4/4 5/5/5 6/6/6
f 7/7/7 9/8/8 8/9/9
f 9/8/8 7/7/7 10/10/10
f 11/11/11 13/12/12 12/13/13
f 13/12/12 11/11/11 14/14/14
f 4/4/4 15/15/15 3/2/2
f 15/15/15 4/4/4 16/16/16
f 17/17/17 19/18/18 18/19/19
f 20/20/20 16/16/16 21/21/21
f 16/16/16 20/20/20 15/15/15
f 22/22/22 24/23/23 23/24/24
f 24/23/23 22/22/22 25/25/25
f 8/9/9 2/3/3 26/26/26
f 2/3/3 8/9/9 1/1/1
f 8/9/9 18/19/19 7/7/7
f 18/19/19 8/9/9 26/26/26
f 27/27/27 25/25/25 11/11/11
f 25/25/25 27/27/27 24/23/23
f 28/28/28 11/11/11 12/13/13
f 11/11/11 28/28/28 27/27/27
f 28/28/28 30/29/29 29/30/30
f 30/29/29 28/28/28 12/13/13
f 19/18/18 7/7/7 18/19/19
f 30/29/29 19/18/18 29/30/30
f 31/31/31 22/22/22 32/32/32
f 22/22/22 31/31/31 25/25/25
f 11/11/11 31/31/31 14/14/14
f 31/31/31 11/11/11 25/25/25
f 33/33/33 4/4/4 6/6/6
f 4/4/4 33/33/33 16/16/16
f 5/5/5 8/9/9 9/8/8
f 8/9/9 5/5/5 1/1/1
f 34/34/34 16/16/16 33/33/33
f 16/16/16 34/34/34 21/21/21
f 35/35/35 30/29/29 36/36/36
f 30/29/29 35/35/35 19/18/18
f 12/13/13 36/36/36 30/29/29
f 36/36/36 12/13/13 13/12/12
f 10/10/10 19/18/18 35/35/35
f 19/18/18 10/10/10 7/7/7
f 19/18/18 17/17/17 29/30/30
f 34/34/34 22/22/22 21/21/21
f 22/22/22 34/34/34 32/32/32
f 21/21/21 23/24/24 20/20/20
f 23/24/24 21/21/21 22/22/22
f 37/37/37 39/38/38 38/39/39
f 39/38/38 37/37/37 40/40/40
f 40/40/40 41/41/41 39/38/38
f 41/41/41 40/40/40 42/42/42
f 42/42/42 43/43/43 41/41/41
f 43/43/43 42/42/42 44/44/44
f 15/15/15 45/45/45 3/2/2
f 45/45/45 15/15/15 46/46/46
f 47/47/47 39/38/38 48/48/48
f 39/38/38 47/47/47 38/39/39
f 49/49/49 38/39/39 47/47/47
f 38/39/39 49/49/49 50/50/50
f 51/51/51 50/50/50 49/49/49
f 50/50/50 51/51/51 52/52/52
f 52/52/52 54/53/53 53/54/54
f 54/53/53 52/52/52 51/51/51
f 55/55/55 53/54/54 54/53/53
f 53/54/54 55/55/55 56/56/56
f 18/19/19 57/57/57 17/17/17
f 58/58/58 26/26/26 59/59/59
f 26/26/26 58/58/58 18/19/19
f 26/26/26 60/60/60 59/59/59
f 60/60/60 26/26/26 2/3/3
f 60/60/60 3/2/2 45/45/45
f 3/2/2 60/60/60 2/3/3
f 48/48/48 41/41/41 46/46/46
f 41/41/41 48/48/48 39/38/38
f 57/57/57 29/30/30 17/17/17
f 57/57/57 56/56/56 55/55/55
f 56/56/56 57/57/57 61/61/61
f 57/57/57 62/62/62 61/61/61
f 62/62/62 57/57/57 58/58/58
f 44/44/44 63/63/63 43/43/43
f 63/63/63 44/44/44 64/64/64
f 64/64/64 65/65/65 63/63/63
f 65/65/65 64/64/64 66/66/66
f 66/66/66 62/62/62 65/65/65
f 62/62/62 66/66/66 67/67/67
f 67/67/67 61/61/61 62/62/62
f 61/61/61 67/67/67 68/68/68
f 68/68/68 56/56/56 61/61/61
f 56/56/56 68/68/68 69/69/69
f 69/69/69 53/54/54 56/56/56
f 53/54/54 69/69/69 70/70/70
f 52/52/52 70/70/70 71/71/71
f 70/70/70 52/52/52 53/54/54
f 71/71/71 50/50/50 52/52/52
f 50/50/50 71/71/71 72/72/72
f 72/72/72 38/39/39 50/50/50
f 38/39/39 72/72/72 37/37/37
f 73/73/73 44/44/44 74/74/74
f 44/44/44 73/73/73 64/64/64
f 73/73/73 66/66/66 64/64/64
f 66/66/66 73/73/73 75/75/75
f 76/76/76 66/66/66 77/77/77
f 66/66/66 76/76/76 67/67/67
f 78/78/78 67/67/67 76/76/76
f 67/67/67 78/78/78 68/68/68
f 79/79/79 68/68/68 78/78/78
f 68/68/68 79/79/79 69/69/69
f 79/79/79 70/70/70 69/69/69
f 70/70/70 79/79/79 80/80/80
f 71/71/71 80/80/80 81/81/81
f 80/80/80 71/71/71 70/70/70
f 82/82/82 71/71/71 81/81/81
f 71/71/71 82/82/82 72/72/72
f 83/83/83 72/72/72 82/82/82
f 72/72/72 83/83/83 37/37/37
f 42/42/42 84/84/84 44/44/44
f 84/84/84 42/42/42 85/85/85
f 40/40/40 85/85/85 42/42/42
f 85/85/85 40/40/40 86/86/86
f 37/37/37 86/86/86 40/40/40
f 86/86/86 37/37/37 83/83/83
f 84/84/84 74/74/74 44/44/44
f 75/75/75 77/77/77 66/66/66
f 46/46/46 20/20/20 48/48/48
f 20/20/20 46/46/46 15/15/15
f 48/48/48 23/24/24 47/47/47
f 23/24/24 48/48/48 20/20/20
f 47/47/47 24/23/23 49/49/49
f 24/23/23 47/47/47 23/24/24
f 49/49/49 27/27/27 51/51/51
f 27/27/27 49/49/49 24/23/23
f 51/51/51 28/28/28 54/53/53
f 28/28/28 51/51/51 27/27/27
f 54/53/53 29/30/30 55/55/55
f 29/30/30 54/53/53 28/28/28
f 46/46/46 43/43/43 45/45/45
f 43/43/43 46/46/46 41/41/41
f 45/45/45 63/63/63 60/60/60
f 63/63/63 45/45/45 43/43/43
f 60/60/60 65/65/65 59/59/59
f 65/65/65 60/60/60 63/63/63
f 59/59/59 62/62/62 58/58/58
f 62/62/62 59/59/59 65/65/65
f 57/57/57 55/55/55 29/30/30
f 58/58/58 57/57/57 18/19/19
f 87/87/87 98/88/88 97/89/89 96/90/90 95/91/91 94/92/92 93/93/93 92/94/94 91/95/95 90/96/96 89/97/97 88/98/98
f 6/6/6 87/87/87 88/98/98 33/33/33
f 33/33/33 88/98/98 89/97/97 34/34/34
f 34/34/34 89/97/97 90/96/96 32/32/32
f 32/32/32 90/96/96 91/95/95 31/31/31
f 31/31/31 91/95/95 92/94/94 14/14/14
f 14/14/14 92/94/94 93/93/93 13/12/12
f 13/12/12 93/93/93 94/92/92 36/36/36
f 36/36/36 94/92/92 95/91/91 35/35/35
f 35/35/35 95/91/91 96/90/90 10/10/10
f 10/10/10 96/90/90 97/89/89 9/8/8
f 9/8/8 97/89/89 98/88/88 5/5/5
f 5/5/5 98/88/88 87/87/87 6/6/6
f 99/99/99 101/100/100 100/101/101
f 102/102/102 104/103/103 103/104/104
f 105/105/105 107/106/106 106/107/107
f 74/74/74 104/103/103 102/102/102 100/101/101 101/100/100 73/73/73
f 73/73/73 101/100/100 99/99/99 106/107/107 107/106/106 75/75/75
f 108/108/108 110/109/109 109/110/110
f 75/75/75 107/106/106 105/105/105 109/110/110 110/109/109 77/77/77
f 111/111/111 113/112/112 112/113/113
f 77/77/77 110/109/109 108/108/108 112/113/113 113/112/112 76/76/76
f 114/114/114 116/115/115 115/116/116
f 76/76/76 113/112/112 111/111/111 115/116/116 116/115/115 78/78/78
f 117/117/117 119/118/118 118/119/119
f 78/78/78 116/115/115 114/114/114 118/119/119 119/118/118 79/79/79
f 120/120/120 122/121/121 121/122/122
f 79/79/79 119/118/118 117/117/117 121/122/122 122/121/121 80/80/80
f 123/123/123 125/124/124 124/125/125
f 80/80/80 122/121/121 120/120/120 124/125/125 125/124/124 81/81/81
f 126/126/126 128/127/127 127/128/128
f 81/81/81 125/124/124 123/123/123 127/128/128 128/127/127 82/82/82
f 129/129/129 131/130/130 130/131/131
f 82/82/82 128/127/127 126/126/126 130/131/131 131/130/130 83/83/83
f 132/132/132 134/133/133 133/134/134
f 83/83/83 131/130/130 129/129/129 133/134/134 134/133/133 86/86/86
f 135/135/135 137/136/136 136/137/137
f 86/86/86 134/133/133 132/132/132 136/137/137 137/136/136 85/85/85
f 138/138/138 140/139/139 139/140/140
f 103/104/104 138/138/138 139/140/140 135/135/135 136/137/137 132/132/132 133/134/134 129/129/129 130/131/131 126/126/126 127/128/128 123/123/123 124/125/125 120/120/120 121/122/122 117/117/117 118/119/119 114/114/114 115/116/116 111/111/111 112/113/113 108/108/108 109/110/110 105/105/105 106/107/107 99/99/99 100/101/101 102/102/102
f 85/85/85 137/136/136 135/135/135 139/140/140 140/139/139 84/84/84
f 84/84/84 140/139/139 138/138/138 103/104/104 104/103/103 74/74/74
